<svg xmlns="http://www.w3.org/2000/svg" width="32" height="32" viewBox="0 0 32 32"><g transform="translate(0 -1020.362)"><path fill="#00e4ff" d="m 21.000277,1024.3615 c -2.082555,0 -4.037779,1.0028 -5.25841,2.6902 -0.661637,-0.449 -1.442629,-0.6893 -2.24219,-0.69 -2.208827,8e-4 -3.998887,1.7918 -3.9985,4.0007 0.0014,0.1787 0.01474,0.3572 0.04,0.5342 -0.439714,-0.3455 -0.982565,-0.5336 -1.54177,-0.5342 -1.1876018,5e-4 -2.2108948,0.8365 -2.44832,2.0002 l -0.0505,0 c -2.216,0 -4.00059,1.7826 -4.00059,3.9985 0,2.216 1.78459,4.0006 4.00059,4.0006 l 3.62621,0 12.74632,0 3.6262,0 c 2.21601,0 4.0006,-1.7845 4.0006,-4.0006 0,-1.599 -0.93434,-2.962 -2.28425,-3.6031 0.187962,-0.6149 0.283654,-1.2543 0.28395,-1.8973 -3.25e-4,-3.5893 -2.910015,-6.499 -6.4994,-6.4993 z"/><path fill="#00a5ff" d="m 20.999957,1024.3615 c -0.51322,0 -1.017194,0.063 -1.505859,0.1797 2.868362,0.6758 5.005581,3.2457 5.005859,6.3203 -2.96e-4,0.643 -0.09719,1.2816 -0.285156,1.8965 1.34991,0.6411 2.285156,2.0045 2.285156,3.6035 0,2.2161 -1.78399,4 -4,4 l 3,0 c 2.21601,0 4,-1.7839 4,-4 0,-1.599 -0.935246,-2.9624 -2.285156,-3.6035 0.187962,-0.6149 0.28486,-1.2535 0.285156,-1.8965 -3.25e-4,-3.5893 -2.910615,-6.4997 -6.5,-6.5 z"/><path fill="#00a5ff" d="m 27.476519,1033.4045 c 0.327714,0.5774 0.523438,1.2415 0.523438,1.957 0,2.2161 -1.78399,4 -4,4 l -3.626953,0 -12.7460939,0 -3.6269531,0 c -0.7195747,0 -1.3825775,-0.2032 -1.9648438,-0.5332 0.6865798,1.2098 1.9692336,2.0332 3.4648438,2.0332 l 3.6269531,0 12.7460939,0 3.626953,0 c 2.21601,0 4,-1.7839 4,-4 0,-1.4916 -0.818517,-2.7706 -2.023438,-3.457 z"/><path fill="#fff" d="m 20.999957,1024.3615 c -0.25373,0 -0.505055,0.016 -0.753906,0.045 3.237369,0.3709 5.753604,3.1185 5.753906,6.4551 -2.96e-4,0.643 -0.09719,1.2816 -0.285156,1.8965 1.34991,0.6411 2.285156,2.0045 2.285156,3.6035 0,2.2161 -1.78399,4 -4,4 l 1.5,0 c 2.21601,0 4,-1.7839 4,-4 0,-1.599 -0.935246,-2.9624 -2.285156,-3.6035 0.187962,-0.6149 0.28486,-1.2535 0.285156,-1.8965 -3.25e-4,-3.5893 -2.910615,-6.4997 -6.5,-6.5 z"/><path style="line-height:normal;text-indent:0;text-align:start;text-decoration-line:none;text-decoration-style:solid;text-decoration-color:#000;text-transform:none;block-progression:tb;isolation:auto;mix-blend-mode:normal" d="m 21,1023.8613 a 0.50005,0.50005 0 0 0 -0.228516,0.055 c -2.024666,0.07 -3.880356,1.0275 -5.152343,2.5977 -0.658726,-0.3602 -1.363804,-0.6517 -2.119141,-0.6524 a 0.50005,0.50005 0 1 0 0,1 c 0.699625,6e-4 1.381943,0.2107 1.960938,0.6035 a 0.50005,0.50005 0 0 0 0.685546,-0.121 c 1.127159,-1.5581 2.931485,-2.4825 4.853516,-2.4825 3.319194,3e-4 5.999699,2.6808 6,6 -2.73e-4,0.5936 -0.08821,1.1824 -0.261719,1.75 a 0.50005,0.50005 0 0 0 0.263672,0.5977 c 1.182602,0.5616 1.998047,1.7481 1.998047,3.1523 0,1.9477 -1.552415,3.5 -3.5,3.5 l -3.626953,0 -12.7460939,0 -3.6269531,0 c -1.9475584,0 -3.5,-1.5524 -3.5,-3.5 0,-1.9474 1.5521408,-3.498 3.5,-3.498 l 0.013672,0 0.011719,0 0.013672,0 0.011719,0 a 0.50005,0.50005 0 0 0 0.4902344,-0.4004 c 0.047634,-0.2335 0.1337571,-0.4492 0.2519532,-0.6426 0.1181823,-0.1935 0.2677222,-0.364 0.4414062,-0.5058 a 0.50005,0.50005 0 1 0 -0.6308594,-0.7754 c -0.2602675,0.2125 -0.4864891,0.469 -0.6640625,0.7597 -0.1155732,0.1892 -0.1738566,0.4117 -0.2460937,0.627 C 2.8601138,1032.0917 1,1033.9858 1,1036.3613 c 0,2.4845 2.0155584,4.5 4.5,4.5 l 3.6269531,0 12.7460939,0 3.626953,0 c 2.484435,0 4.5,-2.0154 4.5,-4.5 0,-1.6427 -0.943891,-2.9986 -2.257812,-3.7812 0.143684,-0.5637 0.257544,-1.1362 0.257812,-1.7188 -3.49e-4,-3.8596 -3.140424,-6.9996 -7,-7 z m -9.072266,2.3125 a 0.50005,0.50005 0 0 0 -0.179687,0.043 c -0.269287,0.114 -0.524427,0.2523 -0.763672,0.4141 a 0.50005,0.50005 0 1 0 0.558594,0.8281 c 0.186218,-0.1259 0.386562,-0.2337 0.595703,-0.3223 a 0.50005,0.50005 0 0 0 -0.210938,-0.9629 z m -1.75,1.4473 a 0.50005,0.50005 0 0 0 -0.4082028,0.2246 c -0.1616353,0.2394 -0.3002041,0.4962 -0.4140624,0.7656 -0.1138866,0.2694 -0.2037606,0.5526 -0.2636719,0.8457 -0.050096,0.245 -0.065717,0.5006 -0.074219,0.7578 C 8.6775932,1030.0843 8.3691454,1029.8617 8,1029.8613 a 0.50005,0.50005 0 1 0 -0.00195,1 c 0.4474289,5e-4 0.882536,0.1513 1.234375,0.4278 a 0.50005,0.50005 0 0 0 0.8046871,-0.4629 c -0.02192,-0.1536 -0.03377,-0.3096 -0.03516,-0.4649 l 0,-0 c -5e-6,-7e-4 5e-6,-0 0,-0 2.24e-4,-0.2409 0.02404,-0.4748 0.07031,-0.7012 0.04654,-0.2276 0.114735,-0.4472 0.203125,-0.6562 0.08842,-0.2092 0.196511,-0.4075 0.322265,-0.5938 a 0.50005,0.50005 0 0 0 -0.419922,-0.7851 z" color="#000" font-family="sans-serif" font-weight="400" overflow="visible"/><path fill="#00a5ff" d="m 8.93738,1044.1118 13.12504,0 m -13.12504,-7.5006 13.12504,0 m -6.56241,-3.7504 0,15.0014 m -7.50005,-7.5006 15,0 m 0,0 c 0,4.1425 -3.35783,7.5006 -7.49995,7.5006 -4.14221,0 -7.50005,-3.3581 -7.50005,-7.5006 0,-4.1424 3.35784,-7.5008 7.50005,-7.5008 4.14212,0 7.49995,3.3584 7.49995,7.5008 z"/><path fill="#0079fd" d="m 15.49996,1032.8615 c -4.14221,0 -7.5,3.3576 -7.5,7.5 0,4.1425 3.35779,7.5 7.5,7.5 0.69366,0 1.36242,-0.1011 2,-0.2773 -3.16973,-0.8763 -5.5,-3.7739 -5.5,-7.2227 0,-3.4487 2.33027,-6.3463 5.5,-7.2227 -0.63758,-0.1762 -1.30634,-0.2773 -2,-0.2773 z"/><path fill="#fff" d="m 15.49996,1032.8616 c -4.14221,0 -7.5,3.3576 -7.5,7.5 0,4.1425 3.35779,7.4999 7.5,7.4999 0.34767,0 0.68762,-0.031 1.02273,-0.078 -3.6573,-0.4999 -6.47728,-3.6279 -6.47728,-7.4228 0,-3.7948 2.81998,-6.9228 6.47728,-7.4227 -0.33511,-0.046 -0.67506,-0.078 -1.02273,-0.078 z"/><path style="line-height:normal;text-indent:0;text-align:start;text-decoration-line:none;text-decoration-style:solid;text-decoration-color:#000;text-transform:none;block-progression:tb;isolation:auto;mix-blend-mode:normal" d="m 15.5,1032.3613 c -4.412468,0 -8,3.5874 -8,8 0,4.4127 3.587556,8 8,8 4.41236,0 8,-3.5873 8,-8 0,-4.4126 -3.587616,-8 -8,-8 z m -0.5,1.1016 0,2.6484 -4.925781,0 c 1.178915,-1.5052 2.900561,-2.4981 4.925781,-2.6484 z m 1,0 c 2.025174,0.1503 3.746877,1.1432 4.925781,2.6484 l -4.925781,0 0,-2.6484 z m -6.5976562,3.6484 5.5976562,0 0,2.75 -6.3984375,0 c 0.074129,-0.9989 0.3525343,-1.9123 0.8007813,-2.75 z m 6.5976562,0 5.597656,0 c 0.448244,0.8377 0.726653,1.7511 0.800782,2.75 l -6.398438,0 0,-2.75 z m -7.4003906,3.75 6.4003906,0 0,2.75 -5.5996094,0 c -0.4477146,-0.8373 -0.7268008,-1.7515 -0.8007812,-2.75 z m 7.4003906,0 6.400391,0 c -0.07398,0.9985 -0.35307,1.9127 -0.800782,2.75 l -5.599609,0 0,-2.75 z m -5.925781,3.75 4.925781,0 0,2.6485 c -2.025412,-0.1504 -3.746873,-1.1431 -4.925781,-2.6485 z m 5.925781,0 4.925781,0 c -1.178898,1.5054 -2.900415,2.4981 -4.925781,2.6485 l 0,-2.6485 z" color="#000" font-family="sans-serif" font-weight="400" overflow="visible"/><path fill-rule="evenodd" style="line-height:normal;text-indent:0;text-align:start;text-decoration-line:none;text-decoration-style:solid;text-decoration-color:#000;text-transform:none;block-progression:tb;isolation:auto;mix-blend-mode:normal" d="M12.457031 1033.1914c-1.938391 4.7732-2.259646 9.3306-.146484 14.2852l.919922-.3926c-2.013739-4.7215-1.718685-8.9083.152343-13.5156l-.925781-.377zM18.486328 1033.1914l-.925781.377c1.871048 4.6073 2.166082 8.7941.152344 13.5156l.919921.3926c2.113162-4.9546 1.791928-9.512-.146484-14.2852z" color="#000" font-family="sans-serif" font-weight="400" overflow="visible"/></g></svg>