<?xml version="1.0" encoding="utf-8"?>
<!-- Generator: Adobe Illustrator 16.0.0, SVG Export Plug-In . SVG Version: 6.00 Build 0)  -->
<!DOCTYPE svg PUBLIC "-//W3C//DTD SVG 1.1//EN" "http://www.w3.org/Graphics/SVG/1.1/DTD/svg11.dtd">
<svg version="1.1" id="Studying" xmlns="http://www.w3.org/2000/svg" xmlns:xlink="http://www.w3.org/1999/xlink" x="0px" y="0px"
	 width="512px" height="512px" viewBox="0 0 512 512" enable-background="new 0 0 512 512" xml:space="preserve">
<path fill="#FFE787" d="M425.82,199.781c0,99.414-80.59,180-179.998,180c-99.41,0-180-80.586-180-180c0-99.41,80.59-180,180-180
	C345.23,19.781,425.82,100.371,425.82,199.781z"/>
<path fill="#E9A953" d="M402,256.605c0,112.977,0,89.699,0,192.004H82c0-151.582,0,111.773,0-192.004H66v208.004h148.793l1.09,2.262
	c5.152,10.699,15.873,17.348,27.979,17.348s22.826-6.648,27.975-17.344l1.094-2.266H418V256.605H402z"/>
<path d="M402,248.605v-20h-24v-16h-24v-16h-8v16h-31.551c-46.051,0-65.686,11.516-71.59,16c-22.467,0-68.859,0-96.859,0v-67.758
	l-20,19.609l-20-19.609v67.758H82v20h-9.42H58v224.004h151.857c6.863,12.156,19.668,19.609,34.004,19.609
	c14.338,0,27.139-7.453,34.002-19.609H426V248.605h-6.938H402z M126,191.66l12-11.766v48.711h-24v-48.711L126,191.66z M238,236.605
	v172.004H90V236.605H238z M370,392.609h-55.551c-37.395,0-56.449,7.734-68.449,13.094c0-66.41,0-109.414,0-170.766
	c8-3.336,23.617-14.332,68.449-14.332H370V392.609z M394,408.609H260.457c10.398-3.969,27.453-8,53.992-8H378V236.605h16V408.609z
	 M90,416.609h148v8H102v8c76,0,236,0,280,0v-8H246v-8h148v24H90V416.609z M418,464.609H272.93l-1.094,2.266
	c-5.148,10.695-15.869,17.344-27.975,17.344s-22.826-6.648-27.979-17.348l-1.09-2.262H66V256.605h16c0,112.977,0,89.699,0,192.004
	h320V256.605h16V464.609z"/>
<path fill="#7DC4C4" d="M394,416.609H246v8h136v8c-44,0-204,0-280,0v-8h136v-8H90v24h304V416.609z"/>
<polygon fill="#7DC4C4" points="138,228.605 138,179.895 126,191.66 114,179.895 114,228.605 "/>
<path fill="#E9A953" d="M219.332,180.605c1.018,12.652,11.619,22.645,24.529,22.645s23.51-9.992,24.529-22.645H219.332z"/>
<rect x="90" y="236.605" fill="#DCEBEB" width="148" height="172.004"/>
<path fill="#DCEBEB" d="M378,400.609h-63.551c-26.539,0-43.594,4.031-53.992,8H394V236.605h-16V400.609z"/>
<path fill="#DCEBEB" d="M258,85.555c0-2.734-2.215-4.949-4.945-4.949h-22.109c-2.73,0-4.945,2.215-4.945,4.949v2.105
	c0,2.73,2.215,4.945,4.945,4.945h22.109c2.73,0,4.945-2.215,4.945-4.945V85.555z"/>
<polygon points="390,196.605 398,196.605 398,188.605 406,188.605 406,180.605 398,180.605 398,172.605 390,172.605 390,180.605 
	382,180.605 382,188.605 390,188.605 "/>
<polygon points="78,72.605 86,72.605 86,60.605 98,60.605 98,52.605 86,52.605 86,40.605 78,40.605 78,52.605 66,52.605 66,60.605 
	78,60.605 "/>
<rect x="346" y="136.605" width="8" height="52"/>
<path d="M348.813,52.801c-8.945-16.57-26-28.195-46.129-28.195h-11.766c-1.027,0-2.035,0.102-3.051,0.164
	c-24.883,1.613-44.887,22.621-46.826,47.836h-8.391c-7.139,0-14.65,5.809-14.65,12.949v2.105c0,1.328,1.113,2.582,1.484,3.789
	c-42.336,18.324-47.971,84.055-48.035,84.824l0.064,4.332h39.818c1.037,17.066,15.209,30.645,32.529,30.645
	c17.318,0,31.494-13.578,32.529-30.645h39.816l-0.363-4.332c-0.063-0.773-7.004-66.789-49.586-84.945
	c0.348-1.172-0.258-2.387-0.258-3.668v-2.105c0-7.141-4.105-12.949-11.24-12.949h-5.723c1.959-22.18,19.982-40,41.881-40h11.766
	c23.98,0,43.316,20.398,43.316,43.648v52.352h8V76.254C354,67.867,352.637,59.891,348.813,52.801z M243.861,204.605
	c-12.91,0-23.512-11.348-24.529-24h49.059C267.371,193.258,256.771,204.605,243.861,204.605z M301.859,148.605H282v8
	c4,0,22.512,0,22.105,0c1.688,6.645,2.703,12.363,3.23,16H180.379c0.533-3.719,1.541-9.035,3.293-15.867
	c-0.039-0.039-0.053-0.094-0.094-0.133c0,0,0.094,0,0.127,0H234v-8h-48.16c5.936-18.957,17.455-41.902,39.293-50.449
	c2.125,1.527,4.709,2.449,7.518,2.449h22.109c2.852,0,5.467-0.957,7.607-2.523C284.313,106.563,295.895,129.59,301.859,148.605z
	 M258,87.66c0,2.73-2.213,4.945-4.943,4.945h-22.113c-2.73,0-4.943-2.215-4.943-4.945v-2.105c0-2.734,2.213-4.949,4.943-4.949
	h22.113c2.73,0,4.943,2.215,4.943,4.949V87.66z"/>
<rect x="242" y="148.605" fill="none" width="32" height="8"/>
<path fill="#7DC4C4" d="M304.105,156.605c0.406,0-18.105,0-22.105,0v-8h19.859c-5.965-19.016-17.547-42.043-39.492-50.523
	c-2.141,1.566-4.756,2.523-7.607,2.523H232.65c-2.809,0-5.393-0.922-7.518-2.449c-21.838,8.547-33.357,31.492-39.293,50.449H234v8
	h-50.295c-0.012,0.047-0.02,0.086-0.033,0.133c-1.752,6.832-2.76,12.148-3.293,15.867h126.957
	C306.809,168.969,305.793,163.25,304.105,156.605z M274,156.605h-32v-8h32V156.605z"/>
<path fill="#FFFFFF" d="M227.758,107.039c-15.498,7.75-23.082,26.359-23.398,27.148l7.43,2.969
	c0.064-0.164,6.738-16.559,19.547-22.961L227.758,107.039z"/>
<path fill="#FFFFFF" d="M314.449,220.605c-44.832,0-60.449,10.996-68.449,14.332v170.766c12-5.359,31.055-13.094,68.449-13.094H370
	V220.605H314.449z"/>
<rect x="242" y="148.605" width="32" height="8"/>
<polygon fill="#DE856F" points="138,116.605 146,116.605 146,108.605 154,108.605 154,100.605 146,100.605 146,92.605 138,92.605 
	138,100.605 130,100.605 130,108.605 138,108.605 "/>
<polygon fill="#DE856F" points="446,68.605 438,68.605 438,76.605 430,76.605 430,84.605 438,84.605 438,92.605 446,92.605 
	446,84.605 454,84.605 454,76.605 446,76.605 "/>
<rect x="114" y="288.605" width="40" height="8.004"/>
<rect x="150" y="312.609" width="64" height="8"/>
<rect x="114" y="336.609" width="52" height="8"/>
<rect x="150" y="356.609" width="64" height="8"/>
<rect x="110" y="256.605" fill="#E9A953" width="32" height="20"/>
<rect x="114" y="380.609" width="36" height="8"/>
<rect x="158" y="380.609" width="16" height="8"/>
<rect x="182" y="380.609" width="32" height="8"/>
<rect x="162" y="288.605" width="52" height="8.004"/>
<rect x="114" y="312.609" width="28" height="8"/>
<rect x="174" y="336.609" width="40" height="8"/>
<rect x="114" y="356.609" width="28" height="8"/>
<path d="M311.703,300.609H314v-8l-3.211-0.07c-17.969,0.328-32.098,1.938-48.352,7.648l2.883,7.555
	C276.023,304.012,287.293,301.008,311.703,300.609z"/>
<rect x="334" y="268.605" width="16" height="8"/>
<path d="M276.238,256.84l-1.758-7.805c-4.164,0.938-8.301,2.074-12.332,3.484l2.641,7.551
	C268.496,258.773,272.375,257.715,276.238,256.84z"/>
<path d="M286,246.688l1.109,7.922c4.949-0.688,23.258-2.004,31.262-2.004H350v-8h-31.629C309.48,244.605,291.539,245.91,286,246.688
	z"/>
<path d="M262.895,324.188l2.641,7.555c2.453-0.859,4.473-2.387,16.59-4.551c10.535-1.879,19.93-2.488,30.145-2.652
	c0,0,2.746,0,15.414,0.07l0.039-8c-7.625-0.039-15.629-0.066-15.629-0.066C294.527,316.828,279.469,318.367,262.895,324.188z"/>
<rect x="334" y="316.609" width="16" height="8"/>
<rect x="326" y="292.609" width="24" height="8"/>
<path d="M262.895,348.188l2.641,7.555c22.691-7.906,37.773-6.449,46.746-7.203l-0.844-0.008c0.262,0.012,2.563,0.078,2.563,0.078v-8
	l-3.148-0.07C292.828,341.328,281.254,341.742,262.895,348.188z"/>
<rect x="326" y="340.609" width="24" height="8"/>
<path d="M265.535,283.738c15.91-5.539,29.324-6.867,46.168-7.133H326v-8l-14.758-0.063c-3.574,0.359-23.848-1.109-48.773,7.645
	L265.535,283.738z"/>
<rect x="322" y="360.609" fill="#DE856F" width="28" height="20"/>
</svg>
